<svg width="45" height="31" viewBox="0 0 45 31" fill="none" xmlns="http://www.w3.org/2000/svg">
<g clip-path="url(#clip0_7_215)">
<path d="M22.4528 11.0784C17.0979 11.0784 12.2127 13.8966 9.39431 18.5611C8.73669 19.7273 9.01853 21.185 10.1459 21.8652C11.2732 22.5455 12.6824 22.2539 13.34 21.0878C15.3129 17.7837 18.6949 15.8401 22.3588 15.8401C26.0227 15.8401 29.4047 17.7837 31.3776 21.0878C31.8473 21.8652 32.5989 22.2539 33.3505 22.2539C33.8202 22.2539 34.196 22.1567 34.5718 21.8652C35.6991 21.185 35.9809 19.6301 35.3233 18.5611C32.6928 13.8966 27.8077 11.0784 22.4528 11.0784Z" fill="#767676"/>
<path d="M44.6242 12.7304C39.833 4.76176 31.5657 0 22.453 0C13.3403 0 5.16699 4.76176 0.375755 12.7304C-0.281865 13.8966 -2.7651e-05 15.3542 1.12732 16.0345C2.25467 16.7147 3.66386 16.4232 4.32148 15.2571C8.26719 8.74608 15.0313 4.85893 22.453 4.85893C29.8747 4.85893 36.6388 8.74608 40.5845 15.2571C41.0542 16.0345 41.8058 16.4232 42.5574 16.4232C43.0271 16.4232 43.4029 16.326 43.7787 16.0345C45 15.3542 45.2818 13.7994 44.6242 12.7304Z" fill="#767676"/>
<path d="M22.4528 30.9028C24.5801 30.9028 26.3046 29.119 26.3046 26.9185C26.3046 24.718 24.5801 22.9341 22.4528 22.9341C20.3256 22.9341 18.6011 24.718 18.6011 26.9185C18.6011 29.119 20.3256 30.9028 22.4528 30.9028Z" fill="#767676"/>
</g>
<defs>
<clipPath id="clip0_7_215">
<rect width="45" height="31" fill="white"/>
</clipPath>
</defs>
</svg>
